<svg xmlns="http://www.w3.org/2000/svg" viewBox="0 0 32 32" width="32" height="32"><path cx="32" cy="32" r="30" fill="#2c3e50" stroke="#00bd7e33" stroke-width="2" d="M31 16A15 15 0 0 1 16 31A15 15 0 0 1 1 16A15 15 0 0 1 31 16z"/><g fill="#00bd7e"><path cx="22" cy="22" r="8" d="M15 11A4 4 0 0 1 11 15A4 4 0 0 1 7 11A4 4 0 0 1 15 11z"/><path cx="42" cy="22" r="8" d="M25 11A4 4 0 0 1 21 15A4 4 0 0 1 17 11A4 4 0 0 1 25 11z"/><path x="16" y="30" width="12" height="18" rx="15" d="M11 15H11A3 4.5 0 0 1 14 19.5V19.5A3 4.5 0 0 1 11 24H11A3 4.5 0 0 1 8 19.5V19.5A3 4.5 0 0 1 11 15z"/><path x="36" y="30" width="12" height="18" rx="15" d="M21 15H21A3 4.5 0 0 1 24 19.5V19.5A3 4.5 0 0 1 21 24H21A3 4.5 0 0 1 18 19.5V19.5A3 4.5 0 0 1 21 15z"/></g></svg>